<svg width="154" height="141" viewBox="0 0 154 141" fill="none" xmlns="http://www.w3.org/2000/svg">
<g id="Group">
<g id="Group_2">
<path id="Vector" d="M142.625 140.517C99.8891 139.845 57.1534 139.172 14.4178 138.5C11.5341 138.452 8.78725 137.26 6.77962 135.186C4.77198 133.112 3.66742 130.325 3.70812 127.437C4.14158 90.4141 4.15415 53.3934 3.74582 16.3753C3.70706 13.487 4.81351 10.7011 6.82254 8.62862C8.83158 6.55614 11.5792 5.36616 14.463 5.31964C57.199 4.67632 99.9351 4.03299 142.671 3.38965C144.124 3.39259 145.561 3.68238 146.901 4.24242C148.242 4.80247 149.459 5.62177 150.482 6.65343C151.506 7.68509 152.317 8.90885 152.868 10.2547C153.419 11.6005 153.699 13.0419 153.693 14.4964C154.115 52.8064 154.102 91.1135 153.654 129.418C153.659 130.872 153.378 132.314 152.826 133.659C152.274 135.004 151.462 136.228 150.438 137.259C149.414 138.29 148.196 139.108 146.855 139.667C145.515 140.226 144.077 140.515 142.625 140.517Z" fill="#243976"/>
<path id="Vector_2" d="M139.742 137.444C97.0054 136.8 54.2694 136.157 11.5333 135.514C8.65056 135.468 5.90345 134.28 3.89439 132.208C1.88532 130.137 0.778287 127.353 0.816029 124.465C1.22416 87.4672 1.21161 50.4717 0.778378 13.4789C0.738667 10.5916 1.84381 7.80628 3.85148 5.73382C5.85914 3.66136 8.60545 2.47086 11.4882 2.42338C54.2238 1.75101 96.9594 1.07864 139.695 0.40625C141.147 0.407713 142.584 0.695941 143.925 1.25444C145.265 1.81293 146.482 2.63072 147.507 3.661C148.531 4.69128 149.343 5.91381 149.895 7.2586C150.447 8.6034 150.729 10.0441 150.724 11.4981C151.172 49.7826 151.185 88.0646 150.763 126.344C150.769 127.798 150.488 129.239 149.937 130.584C149.385 131.929 148.575 133.152 147.551 134.183C146.527 135.214 145.311 136.033 143.97 136.592C142.63 137.152 141.193 137.441 139.742 137.444Z" fill="#49B3F7"/>
<path id="Vector_3" d="M139.694 0.40625L112.046 0.841307C125.869 4.96514 135.785 17.3031 138.055 30.5157C143.592 62.7493 81.0072 100.317 54.8827 106.718C37.5672 110.961 18.116 113.569 1.00133 106.655C0.941676 113.779 0.904505 117.341 0.815388 124.465C0.777635 127.353 1.88467 130.137 3.89373 132.208C5.9028 134.28 8.64992 135.468 11.5327 135.514C54.2687 136.157 97.0048 136.8 139.741 137.444C141.193 137.441 142.63 137.152 143.97 136.592C145.31 136.033 146.527 135.214 147.55 134.183C148.574 133.152 149.385 131.929 149.936 130.584C150.487 129.239 150.768 127.798 150.763 126.344C151.185 88.0593 151.172 49.7773 150.724 11.4981C150.728 10.0441 150.446 8.60343 149.894 7.25864C149.342 5.91384 148.531 4.69131 147.506 3.66103C146.482 2.63075 145.264 1.81295 143.924 1.25445C142.584 0.695955 141.146 0.407721 139.694 0.40625Z" fill="#378FDD"/>
<path id="Vector_4" d="M96.9898 1.07812C68.4893 1.52648 39.9887 1.97486 11.4882 2.42326C8.60545 2.47076 5.85915 3.66126 3.85149 5.73372C1.84383 7.80618 0.738678 10.5914 0.778378 13.4788C0.985818 30.9914 1.11011 48.504 1.15123 66.0165C19.484 30.3338 59.828 10.4982 96.9898 1.07812Z" fill="#6CC1F9"/>
<path id="Vector_5" d="M137.896 133.874C96.424 133.283 54.9522 132.691 13.4804 132.1C11.1195 132.064 8.86933 131.091 7.22361 129.396C5.57788 127.7 4.671 125.419 4.70194 123.055C5.03921 91.8007 5.08066 60.5478 4.82628 29.2962C52.2314 28.8444 99.6366 28.3924 147.042 27.9404C147.304 60.2251 147.261 92.5077 146.913 124.788C146.918 125.978 146.688 127.157 146.237 128.258C145.786 129.359 145.123 130.36 144.286 131.204C143.448 132.048 142.453 132.718 141.356 133.176C140.26 133.634 139.084 133.871 137.896 133.874Z" fill="white"/>
<g id="Group_3">
<path id="Vector_6" d="M144.225 12.4895C144.213 13.0855 144.027 13.665 143.689 14.1556C143.351 14.6462 142.876 15.0263 142.324 15.2483C141.771 15.4704 141.166 15.5246 140.583 15.4043C140 15.2839 139.465 14.9943 139.046 14.5716C138.626 14.1489 138.34 13.6117 138.223 13.0272C138.106 12.4427 138.164 11.8366 138.389 11.2847C138.614 10.7327 138.996 10.2593 139.488 9.92355C139.979 9.58776 140.559 9.40445 141.154 9.39648C141.559 9.39759 141.959 9.47849 142.332 9.63453C142.705 9.79058 143.044 10.0187 143.329 10.306C143.614 10.5932 143.84 10.9338 143.994 11.3085C144.147 11.6831 144.226 12.0844 144.225 12.4895Z" fill="white"/>
<path id="Vector_7" d="M134.062 12.622C134.052 13.2183 133.867 13.7984 133.53 14.2899C133.193 14.7814 132.718 15.1625 132.166 15.3856C131.614 15.6087 131.008 15.664 130.425 15.5444C129.841 15.4248 129.306 15.1358 128.886 14.7133C128.466 14.2909 128.179 13.7538 128.061 13.1691C127.944 12.5844 128.001 11.9781 128.226 11.4258C128.451 10.8735 128.833 10.3997 129.325 10.0636C129.817 9.72757 130.396 9.5441 130.992 9.53613C131.396 9.53677 131.796 9.61711 132.169 9.77254C132.542 9.92798 132.88 10.1555 133.165 10.442C133.45 10.7286 133.676 11.0686 133.83 11.4426C133.984 11.8167 134.063 12.2174 134.062 12.622Z" fill="white"/>
<path id="Vector_8" d="M123.585 12.7582C123.577 13.3548 123.393 13.9356 123.056 14.428C122.72 14.9204 122.246 15.3026 121.694 15.5268C121.142 15.751 120.536 15.8072 119.952 15.6884C119.369 15.5697 118.833 15.2812 118.412 14.8591C117.991 14.4369 117.703 13.8999 117.585 13.3151C117.467 12.7302 117.524 12.1236 117.749 11.5709C117.973 11.0182 118.355 10.544 118.847 10.2077C119.339 9.87132 119.919 9.68766 120.515 9.67969C120.919 9.67983 121.318 9.75958 121.691 9.91438C122.063 10.0692 122.402 10.296 122.687 10.5819C122.972 10.8678 123.198 11.2071 123.352 11.5805C123.507 11.954 123.586 12.3541 123.585 12.7582Z" fill="white"/>
</g>
<path id="Vector_9" d="M104.203 22.929L46.0375 23.5548C44.7489 23.5622 43.5101 23.057 42.5932 22.1503C41.6762 21.2435 41.1562 20.0093 41.1472 18.7187C41.1256 17.4283 41.6162 16.1821 42.5114 15.2538C43.4066 14.3255 44.6331 13.791 45.9215 13.7678L104.085 13.0112C104.728 13.0108 105.365 13.1372 105.959 13.3833C106.553 13.6294 107.093 13.9904 107.547 14.4455C108.002 14.9007 108.363 15.4412 108.609 16.0361C108.855 16.631 108.982 17.2686 108.982 17.9125C108.997 18.5563 108.886 19.1968 108.654 19.7974C108.422 20.3979 108.074 20.9469 107.63 21.4127C107.186 21.8786 106.655 22.2523 106.067 22.5125C105.479 22.7727 104.845 22.9142 104.203 22.929Z" fill="white"/>
</g>
<g id="Group_4">
<g id="Group_5">
<path id="Vector_10" d="M26.5276 59.2989C25.3645 59.2945 24.2504 58.8294 23.4285 58.0052C22.6066 57.181 22.1436 56.0646 22.1406 54.8997C22.1265 50.9301 22.1168 48.9463 22.0939 44.9768C22.0857 43.8098 22.5398 42.6873 23.3567 41.8552C24.1736 41.023 25.2865 40.5492 26.4516 40.5376L36.31 40.4702H36.3403C36.9128 40.4691 37.4799 40.5814 38.0089 40.8007C38.5379 41.0201 39.0183 41.3421 39.4225 41.7482C39.8337 42.157 40.1603 42.643 40.3837 43.1784C40.6071 43.7138 40.7228 44.2881 40.7243 44.8684C40.7473 48.8536 40.757 50.8472 40.7711 54.8324C40.7754 55.4159 40.6639 55.9944 40.4431 56.5344C40.2223 57.0744 39.8966 57.5651 39.4849 57.9779C39.0815 58.3873 38.601 58.7124 38.0712 58.9345C37.5415 59.1565 36.973 59.2711 36.3987 59.2715L26.5403 59.2989H26.5276ZM36.3398 41.8927H36.3198L26.4614 41.9591C25.6725 41.9681 24.9193 42.29 24.3669 42.8542C23.8144 43.4183 23.5078 44.1788 23.5141 44.9689C23.537 48.9385 23.5468 50.9242 23.5609 54.8939C23.5619 55.6826 23.8745 56.439 24.4303 56.9978C24.9861 57.5566 25.7401 57.8724 26.5277 57.8764L26.5364 57.8754L36.3953 57.8481C36.7829 57.848 37.1666 57.7709 37.5241 57.621C37.8816 57.4712 38.2059 57.2517 38.478 56.9753C38.7574 56.6947 38.9784 56.3612 39.1283 55.9944C39.2781 55.6276 39.3538 55.2346 39.3509 54.8382C39.3367 50.8531 39.327 48.8614 39.3041 44.8762C39.3032 44.4821 39.2247 44.0919 39.073 43.7282C38.9212 43.3645 38.6993 43.0344 38.42 42.7567C38.1473 42.4823 37.8231 42.2647 37.4661 42.1164C37.1091 41.9681 36.7263 41.8921 36.3398 41.8927Z" fill="#FF6551"/>
<path id="Vector_11" d="M56.4325 59.2168C55.2661 59.2088 54.1502 58.7392 53.3282 57.9102C52.5063 57.0814 52.045 55.9605 52.045 54.7923C52.0309 50.7954 52.0217 48.7979 51.9983 44.801C51.9868 43.6307 52.4391 42.5036 53.256 41.6668C54.0728 40.8299 55.1876 40.3515 56.356 40.3364L66.214 40.269C67.3789 40.2807 68.4945 40.7419 69.3284 41.5568C70.1588 42.3887 70.6263 43.5162 70.6287 44.6926C70.6521 48.7051 70.6614 50.7124 70.676 54.7249C70.6846 55.9014 70.2278 57.0334 69.4054 57.8734C69.0024 58.2893 68.5203 58.6201 67.9875 58.8463C67.4548 59.0725 66.8822 59.1895 66.3036 59.1904L56.4452 59.2168H56.4325ZM66.2437 41.6915H66.2237L56.3658 41.7589C55.5736 41.771 54.8185 42.0972 54.2661 42.666C53.7136 43.2348 53.4088 43.9997 53.4185 44.7931C53.4419 48.7901 53.4512 50.7895 53.4653 54.7864C53.4632 55.5786 53.774 56.3394 54.3299 56.903C54.8857 57.4665 55.6416 57.7869 56.4325 57.7943L56.4413 57.7933L66.2997 57.767C66.6898 57.7665 67.0758 57.6876 67.4348 57.535C67.7939 57.3824 68.1188 57.1592 68.3901 56.8786C68.9507 56.3053 69.2619 55.5331 69.2557 54.7307C69.2411 50.7182 69.2319 48.7129 69.2085 44.7004C69.2072 43.8982 68.8888 43.1291 68.3229 42.5613C68.0512 42.2855 67.7275 42.0666 67.3705 41.9172C67.0136 41.7679 66.6305 41.6912 66.2437 41.6915Z" fill="#FF6551"/>
<path id="Vector_12" d="M86.3374 59.1357C85.1672 59.1247 84.0489 58.6505 83.2265 57.8166C82.4041 56.9827 81.9445 55.8569 81.948 54.6848C81.9339 50.6606 81.9241 48.6494 81.9007 44.6252C81.8861 43.4516 82.3365 42.32 83.1534 41.4784C83.9702 40.6368 85.0868 40.1538 86.2585 40.1352L96.1164 40.0679H96.1462C96.7209 40.0672 97.2899 40.1816 97.8199 40.4042C98.3498 40.6268 98.8301 40.9533 99.2323 41.3644C100.063 42.2031 100.529 43.3358 100.531 44.5168C100.555 48.5567 100.564 50.5776 100.578 54.6175C100.588 55.7986 100.132 56.9358 99.3098 57.7826C98.9079 58.2008 98.426 58.5338 97.8928 58.7615C97.3597 58.9893 96.7862 59.1073 96.2066 59.1084L86.3482 59.1357L86.3374 59.1357ZM96.1462 41.4903H96.1262L86.2682 41.5577C85.4727 41.5734 84.7159 41.9042 84.1635 42.4777C83.611 43.0512 83.3081 43.8206 83.321 44.6174C83.3444 48.6416 83.3541 50.6547 83.3683 54.679C83.363 55.4748 83.6722 56.2404 84.2285 56.8087C84.7848 57.3769 85.5429 57.7018 86.3374 57.7123H86.3447L96.2027 57.6849C96.593 57.6841 96.9792 57.6045 97.3381 57.4509C97.697 57.2972 98.0213 57.0727 98.2917 56.7907C98.8539 56.2105 99.1653 55.4318 99.1582 54.6233C99.1441 50.5834 99.1344 48.5645 99.111 44.5246C99.1104 43.7158 98.7915 42.9399 98.2234 42.365C97.9528 42.0881 97.6296 41.868 97.2729 41.7178C96.9162 41.5676 96.5331 41.4903 96.1462 41.4903Z" fill="#FF6551"/>
<path id="Vector_13" d="M116.24 59.0537C115.067 59.039 113.947 58.5601 113.125 57.7214C112.303 56.8828 111.846 55.7525 111.853 54.5774C111.838 50.5258 111.829 48.501 111.805 44.4494C111.787 43.2723 112.236 42.136 113.053 41.2894C113.869 40.4427 114.988 39.9547 116.163 39.9321L126.021 39.8667L126.051 39.8657C126.626 39.8656 127.196 39.9811 127.727 40.2055C128.257 40.4298 128.737 40.7585 129.139 41.172C129.969 42.0175 130.434 43.1553 130.436 44.341C130.46 48.4082 130.469 50.4428 130.483 54.51C130.489 55.1084 130.375 55.7019 130.15 56.2561C129.925 56.8103 129.592 57.3142 129.17 57.7386C128.771 58.1452 128.295 58.4684 127.769 58.6894C127.244 58.9104 126.68 59.0249 126.111 59.0263L116.253 59.0536L116.24 59.0537ZM126.05 41.2882H126.031L116.173 41.3546C115.374 41.3743 114.615 41.7101 114.063 42.2886C113.51 42.8672 113.209 43.6413 113.225 44.4416C113.249 48.4932 113.259 50.52 113.273 54.5715C113.264 55.3706 113.571 56.1407 114.127 56.714C114.683 57.2872 115.443 57.6169 116.24 57.6312L116.249 57.6302L126.108 57.6029C126.491 57.6019 126.869 57.5247 127.222 57.3757C127.575 57.2267 127.895 57.0089 128.163 56.735C128.452 56.4431 128.681 56.0967 128.835 55.7158C128.99 55.3349 129.067 54.927 129.063 54.5159C129.049 50.4487 129.039 48.416 129.015 44.3488C129.015 43.5339 128.696 42.7515 128.126 42.1698C127.856 41.8911 127.534 41.6694 127.177 41.518C126.821 41.3665 126.437 41.2884 126.05 41.2882Z" fill="#FF6551"/>
</g>
<path id="Vector_14" d="M31.0976 56.6989L29.943 55.544C25.9167 51.5129 23.9008 49.5027 19.8652 45.4892L21.8665 43.4702C25.5004 47.0835 27.4978 49.0751 30.7964 52.3759C34.7496 47.1274 37.0238 44.0931 41.2494 38.4307L43.5246 40.1333C38.9577 46.2536 36.6685 49.3065 32.0807 55.3946L31.0976 56.6989Z" fill="#2435A1"/>
<g id="Group_6">
<path id="Vector_15" d="M22.8513 86.4697L22.8398 89.3154L129.762 89.746L129.774 86.9003L22.8513 86.4697Z" fill="#BFBFBF"/>
<path id="Vector_16" d="M22.796 97.4844L22.7773 100.33L129.699 101.033L129.718 98.1873L22.796 97.4844Z" fill="#BFBFBF"/>
<path id="Vector_17" d="M22.7133 108.5L22.6875 111.345L129.607 112.319L129.633 109.473L22.7133 108.5Z" fill="#BFBFBF"/>
<path id="Vector_18" d="M22.6034 119.514L22.5703 122.36L129.487 123.603L129.52 120.758L22.6034 119.514Z" fill="#BFBFBF"/>
</g>
<path id="Vector_19" d="M28.6268 73.776C28.1812 75.2511 27.9581 75.9884 27.5112 77.4627C26.538 77.4611 26.0513 77.4603 25.0781 77.4588C26.7419 72.259 27.5699 69.6567 29.2181 64.447C30.4214 64.4453 31.0231 64.4445 32.2263 64.4429C33.912 69.6515 34.751 72.2584 36.4211 77.4772C35.4017 77.4755 34.892 77.4747 33.8726 77.4731C33.4074 75.9951 33.1746 75.2564 32.7082 73.7792C31.0756 73.7779 30.2594 73.7773 28.6268 73.776ZM32.3262 71.9813C31.9203 70.6976 31.7172 70.056 31.3104 68.7729C31.061 67.9806 30.8499 67.092 30.6571 66.3383L30.6191 66.3383C30.4283 67.0924 30.2179 67.9999 30.0076 68.7734C29.6096 70.0564 29.4103 70.6977 29.0114 71.9801L32.3262 71.9813Z" fill="#49B3F7"/>
<path id="Vector_20" d="M64.8765 64.3975C64.8776 65.1841 64.8781 65.5774 64.8788 66.3641C62.6255 66.3662 61.4989 66.3672 59.2455 66.3693C59.2466 67.4974 59.2469 68.0613 59.2472 69.1893C59.775 69.126 60.306 69.0935 60.8376 69.0919C62.0729 69.0661 63.2875 69.4115 64.325 70.0834C64.8303 70.4396 65.2386 70.9167 65.5129 71.4712C65.7871 72.0257 65.9187 72.64 65.8955 73.2584C65.9171 73.8005 65.8239 74.341 65.6219 74.8445C65.42 75.3479 65.114 75.8028 64.7239 76.1793C63.3121 77.2479 61.5628 77.7705 59.7971 77.6512C58.83 77.6532 57.8638 77.5931 56.9043 77.4714C56.9127 72.2462 56.9129 69.6336 56.9058 64.4085L64.8765 64.3975ZM59.2442 75.7634C59.6566 75.8234 60.0732 75.8501 60.4899 75.8431C61.3208 75.8758 62.1318 75.5834 62.7513 75.0279C62.9707 74.801 63.1429 74.5328 63.2583 74.2389C63.3737 73.9449 63.4298 73.631 63.4235 73.3152C63.4363 72.969 63.3645 72.6249 63.2144 72.3128C63.0643 72.0007 62.8403 71.7301 62.562 71.5244C61.931 71.0935 61.1794 70.8752 60.4162 70.9012C60.0521 70.9012 59.631 70.9397 59.2474 70.9783C59.2472 72.8923 59.2466 73.8494 59.2442 75.7634Z" fill="#49B3F7"/>
<path id="Vector_21" d="M86.8182 64.5627C87.9563 64.3591 89.1104 64.2592 90.2665 64.2642C91.5493 64.1691 92.8311 64.4612 93.9464 65.1028C94.363 65.3691 94.705 65.7373 94.94 66.1727C95.1751 66.6081 95.2956 67.0963 95.2901 67.5912C95.2766 68.2309 95.062 68.85 94.6769 69.3605C94.2917 69.8709 93.7557 70.2468 93.145 70.4344V70.4933C93.8865 70.6536 94.5503 71.0648 95.0247 71.6577C95.4991 72.2507 95.7551 72.9891 95.7498 73.7489C95.7567 74.2684 95.6503 74.783 95.438 75.257C95.2257 75.731 94.9126 76.1528 94.5206 76.493C93.6071 77.2962 92.0853 77.7049 89.7092 77.701C88.7421 77.7022 87.7759 77.6418 86.8164 77.52C86.8247 72.3372 86.8251 69.7457 86.8182 64.5627ZM89.1595 69.769L90.3668 69.7688C92.0147 69.7686 92.9153 68.9847 92.9147 67.867C92.914 66.6126 91.9935 66.0452 90.4987 66.0467C90.0494 66.0316 89.5998 66.0648 89.1575 66.1457C89.1589 67.595 89.1593 68.3197 89.1595 69.769V69.769ZM89.1563 75.8202C89.5691 75.8757 89.9858 75.8958 90.402 75.8805C91.9154 75.8824 93.2767 75.3157 93.2778 73.6883C93.2789 72.1397 91.9571 71.5121 90.3282 71.5118L89.1595 71.5114C89.1591 73.235 89.1584 74.0967 89.1563 75.8202V75.8202Z" fill="#49B3F7"/>
<path id="Vector_22" d="M126.062 64.3135C126.063 65.1111 126.064 65.51 126.065 66.3076C124.057 66.3095 123.053 66.3104 121.045 66.3123C121.049 70.8331 121.048 73.0935 121.041 77.6143L118.684 77.6105C118.692 72.2958 118.692 69.6384 118.685 64.3237C121.636 64.3196 123.111 64.3176 126.062 64.3135Z" fill="#49B3F7"/>
</g>
</g>
</svg>
